# xmcd CD database file
#
# Track frame offsets:
#	150
#	16155
#	33837
#	50964
#	70791
#	85583
#	98085
#	117502
#	134509
#	150246
#	170133
#	188270
#	211277
#	229489
#	249731
#
# Disc length: 3499 seconds
#
# Revision: 0
# Processed by: cddbd v1.5.1PL0 Copyright (c) Steve Scherf et al.
# Submitted via: CDex 1.51
#
DISCID=c50da90f
DTITLE=Karen Staley - Phoenix Rising
DYEAR=2003
DGENRE=Country
TTITLE0=I'll Leave My Heart In Tennessee
TTITLE1=123
TTITLE2=Don't Quit
TTITLE3=Just Me and The Moon
TTITLE4=Every Time
TTITLE5=I'll Show You
TTITLE6=Women and Children First
TTITLE7=The Real Me
TTITLE8=Party Of One
TTITLE9='Til Your Well Runs Dry
TTITLE10=Every Other Memory
TTITLE11='Cause You Love Me
TTITLE12=Where Have You Been All My Life
TTITLE13=Phoenix
TTITLE14=Blind Date
EXTD=YEAR: 2003
EXTT0=
EXTT1=
EXTT2=
EXTT3=
EXTT4=
EXTT5=
EXTT6=
EXTT7=
EXTT8=
EXTT9=
EXTT10=
EXTT11=
EXTT12=
EXTT13=
EXTT14=
PLAYORDER=
